<svg width="30" height="31" viewBox="0 0 30 31" fill="none" xmlns="http://www.w3.org/2000/svg">
<path d="M17.5 4.71954L15.8839 3.10342C15.3957 2.61527 14.6043 2.61527 14.1161 3.10342L12.5 4.71954M15 8.9873V3.46954" stroke="black" stroke-width="1.5" stroke-linecap="round"/>
<path d="M5 12.7373V21.5012C5 22.2588 5.42801 22.9513 6.10557 23.2901L14.1056 27.2901C14.6686 27.5716 15.3314 27.5716 15.8944 27.2901L23.8944 23.2901C24.572 22.9513 25 22.2588 25 21.5012V12.7373" stroke="black" stroke-width="1.5"/>
<path d="M22.5 6.4873L25 7.7373L15 12.7373L5 7.7373L7.5 6.4873" stroke="black" stroke-width="1.5" stroke-linecap="round" stroke-linejoin="round"/>
<path d="M25 7.7373L15 12.7373L17.5 16.4873L27.5 11.4873L25 7.7373Z" stroke="black" stroke-width="1.5" stroke-linecap="round" stroke-linejoin="round"/>
<path d="M5 7.7373L15 12.7373L12.5 16.4873L2.5 11.4873L5 7.7373Z" stroke="black" stroke-width="1.5" stroke-linecap="round" stroke-linejoin="round"/>
</svg>
