<svg width="30" height="31" viewBox="0 0 30 31" fill="none" xmlns="http://www.w3.org/2000/svg">
<path d="M16.7676 3.70679L13.232 7.24232" stroke="black" stroke-width="1.5" stroke-linecap="round" stroke-linejoin="round"/>
<path d="M16.7676 7.24243L13.232 3.7069" stroke="black" stroke-width="1.5" stroke-linecap="round" stroke-linejoin="round"/>
<path d="M5 12.9746V21.7385C5 22.4961 5.42801 23.1886 6.10557 23.5274L14.1056 27.5274C14.6686 27.8089 15.3314 27.8089 15.8944 27.5274L23.8944 23.5274C24.572 23.1886 25 22.4961 25 21.7385V12.9746" stroke="black" stroke-width="1.5"/>
<path d="M22.5 6.72461L25 7.97461L15 12.9746L5 7.97461L7.5 6.72461" stroke="black" stroke-width="1.5" stroke-linecap="round" stroke-linejoin="round"/>
<path d="M25 7.97461L15 12.9746L17.5 16.7246L27.5 11.7246L25 7.97461Z" stroke="black" stroke-width="1.5" stroke-linecap="round" stroke-linejoin="round"/>
<path d="M5 7.97461L15 12.9746L12.5 16.7246L2.5 11.7246L5 7.97461Z" stroke="black" stroke-width="1.5" stroke-linecap="round" stroke-linejoin="round"/>
</svg>
