<svg width="30" height="31" viewBox="0 0 30 31" fill="none" xmlns="http://www.w3.org/2000/svg">
<path d="M25.625 9.33447L15 15.2373M15 15.2373L4.37496 9.33447M15 15.2373L15 27.1123M26.25 20.3105V10.1641C26.25 9.73579 26.25 9.52164 26.1869 9.33064C26.1311 9.16167 26.0398 9.00657 25.9192 8.87571C25.7829 8.72778 25.5957 8.62378 25.2213 8.41578L15.9713 3.27689C15.6168 3.07994 15.4395 2.98147 15.2518 2.94286C15.0857 2.90869 14.9143 2.90869 14.7482 2.94286C14.5605 2.98147 14.3832 3.07994 14.0287 3.27689L4.77871 8.41578C4.40431 8.62379 4.21711 8.72779 4.08079 8.87571C3.9602 9.00657 3.86893 9.16167 3.81311 9.33064C3.75 9.52164 3.75 9.73579 3.75 10.1641V20.3105C3.75 20.7388 3.75 20.9529 3.81311 21.1439C3.86893 21.3129 3.9602 21.468 4.08079 21.5989C4.21711 21.7468 4.40431 21.8508 4.77872 22.0588L14.0287 27.1977C14.3832 27.3946 14.5605 27.4931 14.7482 27.5317C14.9143 27.5659 15.0857 27.5659 15.2518 27.5317C15.4395 27.4931 15.6168 27.3946 15.9713 27.1977L25.2213 22.0588C25.5957 21.8508 25.7829 21.7468 25.9192 21.5989C26.0398 21.468 26.1311 21.3129 26.1869 21.1439C26.25 20.9529 26.25 20.7388 26.25 20.3105Z" stroke="black" stroke-width="1.5" stroke-linecap="round" stroke-linejoin="round"/>
<path d="M20.625 12.1123L9.375 5.8623" stroke="black" stroke-width="1.5" stroke-linecap="round" stroke-linejoin="round"/>
</svg>
