<svg width="54" height="53" viewBox="0 0 54 53" fill="none" xmlns="http://www.w3.org/2000/svg">
<path fill-rule="evenodd" clip-rule="evenodd" d="M5.05174 4.97479C3.79007 6.25001 3.22022 8.52796 3.24936 12.9467L3.35328 28.7009C3.38244 33.1202 3.98251 35.3893 5.25983 36.6444C6.53678 37.8991 8.81899 38.4628 13.2489 38.4211L13.2524 38.4211L40.9538 38.2383C45.3859 38.2091 47.661 37.6162 48.9221 36.344C50.1825 35.0723 50.7528 32.7959 50.7236 28.3636L50.6198 12.6342C50.5907 8.21537 49.9907 5.94591 48.7101 4.68761C47.4287 3.4285 45.1385 2.86005 40.6957 2.88936L13.0192 3.07193C8.58936 3.10115 6.31341 3.69957 5.05174 4.97479ZM3.30635 3.2566C5.34228 1.19881 8.58934 0.654975 13.003 0.625861L40.6795 0.443296C45.1051 0.414103 48.365 0.914873 50.4311 2.94494C52.498 4.97583 53.043 8.21551 53.072 12.618L53.1758 28.3474C53.2049 32.7613 52.703 36.0086 50.6658 38.0638C48.6293 40.1184 45.3813 40.6553 40.9699 40.6844L13.2719 40.8671C13.2715 40.8671 13.2711 40.8671 13.2707 40.8671C8.85788 40.9085 5.60298 40.4152 3.5389 38.3871C1.47499 36.3591 0.930113 33.1191 0.901075 28.7171L0.797154 12.9629C0.768112 8.56022 1.27043 5.31439 3.30635 3.2566Z" fill="#00FF1A"/>
<path fill-rule="evenodd" clip-rule="evenodd" d="M27.1031 38.3539C27.7802 38.3494 28.3328 38.8933 28.3372 39.5688L28.4156 51.4466C28.42 52.122 27.8747 52.6732 27.1975 52.6777C26.5204 52.6822 25.9678 52.1382 25.9634 51.4628L25.885 39.585C25.8806 38.9095 26.4259 38.3583 27.1031 38.3539Z" fill="#00FF1A"/>
<path fill-rule="evenodd" clip-rule="evenodd" d="M0.904552 29.2638C0.900096 28.5883 1.44543 28.0372 2.12259 28.0327L51.9453 27.704C52.6224 27.6996 53.175 28.2435 53.1794 28.919C53.1839 29.5944 52.6386 30.1456 51.9614 30.1501L2.13872 30.4787C1.46157 30.4832 0.909008 29.9393 0.904552 29.2638Z" fill="#00FF1A"/>
<path fill-rule="evenodd" clip-rule="evenodd" d="M14.7537 51.5374C14.7492 50.8619 15.2946 50.3107 15.9717 50.3062L38.3919 50.1584C39.0691 50.1539 39.6216 50.6978 39.6261 51.3733C39.6305 52.0488 39.0852 52.6 38.408 52.6044L15.9878 52.7523C15.3107 52.7568 14.7581 52.2128 14.7537 51.5374Z" fill="#00FF1A"/>
</svg>
