<svg width="73" height="73" viewBox="0 0 73 73" fill="none" xmlns="http://www.w3.org/2000/svg">
<path d="M61.7374 22.3124L36.5595 36.5182M36.5595 36.5182L11.1965 22.6458M36.5595 36.5182L36.7459 64.7617M63.3962 48.4078L63.237 24.2757C63.2303 23.257 63.2269 22.7477 63.0738 22.2944C62.9384 21.8934 62.7189 21.526 62.43 21.2166C62.1035 20.8669 61.6566 20.6225 60.7629 20.1337L38.6821 8.05649C37.8358 7.59363 37.4127 7.3622 36.9657 7.27332C36.57 7.19466 36.1624 7.19735 35.7678 7.28122C35.322 7.37599 34.9019 7.61298 34.0619 8.08696L12.1423 20.4544C11.2551 20.955 10.8115 21.2053 10.4896 21.5592C10.2048 21.8724 9.99022 22.2427 9.86009 22.6455C9.71299 23.1007 9.71635 23.6101 9.72307 24.6287L9.88226 48.7608C9.88897 49.7795 9.89233 50.2889 10.0454 50.7421C10.1809 51.1431 10.4003 51.5106 10.6892 51.82C11.0158 52.1696 11.4626 52.4141 12.3564 52.9029L34.4372 64.9801C35.2834 65.4429 35.7065 65.6744 36.1536 65.7632C36.5493 65.8419 36.9568 65.8392 37.3514 65.7553C37.7973 65.6606 38.2173 65.4236 39.0574 64.9496L60.9769 52.5822C61.8641 52.0816 62.3077 51.8313 62.6296 51.4773C62.9144 51.1642 63.129 50.7939 63.2592 50.3911C63.4062 49.9359 63.4029 49.4265 63.3962 48.4078Z" stroke="#8B5A2B" stroke-width="2" stroke-linecap="round" stroke-linejoin="round"/>
<path d="M49.8892 28.9976L23.0342 14.3091" stroke="#8B5A2B" stroke-width="2" stroke-linecap="round" stroke-linejoin="round"/>
</svg>
