<svg width="66" height="66" viewBox="0 0 66 66" fill="none" xmlns="http://www.w3.org/2000/svg">
<path d="M38.9043 10.4158L35.4027 6.91422C34.345 5.85655 32.6302 5.85656 31.5725 6.91423L28.071 10.4158M33.4876 19.6626V7.70748" stroke="#D04747" stroke-width="1.5" stroke-linecap="round"/>
<path d="M11.8213 27.7877V48.2183C11.8213 48.9759 12.2493 49.6684 12.9269 50.0072L32.5935 59.8405C33.1566 60.122 33.8193 60.122 34.3824 59.8405L54.0491 50.0072C54.7266 49.6684 55.1546 48.9759 55.1546 48.2183V27.7877" stroke="#D04747" stroke-width="1.5"/>
<path d="M49.738 14.246L55.1546 16.9543L33.488 27.7876L11.8213 16.9543L17.238 14.246" stroke="#D04747" stroke-width="1.5" stroke-linecap="round" stroke-linejoin="round"/>
<path d="M55.1545 16.9543L33.4878 27.7877L38.9045 35.9127L60.5711 25.0793L55.1545 16.9543Z" stroke="#D04747" stroke-width="1.5" stroke-linecap="round" stroke-linejoin="round"/>
<path d="M11.8211 16.9543L33.4878 27.7877L28.0711 35.9127L6.40446 25.0793L11.8211 16.9543Z" stroke="#D04747" stroke-width="1.5" stroke-linecap="round" stroke-linejoin="round"/>
</svg>
