<svg width="61" height="61" viewBox="0 0 61 61" fill="none" xmlns="http://www.w3.org/2000/svg">
<ellipse cx="30.3098" cy="41.7126" rx="14.9471" ry="6.24343" transform="rotate(-0.377941 30.3098 41.7126)" stroke="#FF5C00" stroke-width="1.5" stroke-linejoin="round"/>
<ellipse cx="30.1698" cy="20.4855" rx="7.47356" ry="7.49211" transform="rotate(-0.377941 30.1698 20.4855)" stroke="#FF5C00" stroke-width="1.5" stroke-linejoin="round"/>
<path fill-rule="evenodd" clip-rule="evenodd" d="M14.41 35.0075C12.2476 35.2608 10.3005 35.7369 8.73134 36.3782C7.55503 36.8589 6.55416 37.4475 5.8366 38.1368C5.1174 38.8277 4.63386 39.6716 4.6402 40.6332C4.64654 41.5948 5.14117 42.4322 5.86943 43.1136C6.59602 43.7934 7.60457 44.3687 8.78712 44.8338C9.62554 45.1636 10.5701 45.4454 11.5962 45.6707C11.2257 45.1033 10.9344 44.5138 10.73 43.9066C10.2333 43.7644 9.76731 43.6075 9.3362 43.438C8.25875 43.0141 7.43611 42.5252 6.89424 42.0182C6.35403 41.5128 6.14292 41.0409 6.14017 40.6233C6.13741 40.2056 6.34228 39.731 6.87577 39.2185C7.41091 38.7044 8.22703 38.2047 9.29879 37.7667C10.1954 37.4003 11.2452 37.0875 12.4102 36.8462C12.9739 36.1963 13.6449 35.5809 14.41 35.0075Z" fill="#FF5C00"/>
<path fill-rule="evenodd" clip-rule="evenodd" d="M49.9172 43.6482C49.7208 44.258 49.4373 44.8513 49.0743 45.4235C50.0974 45.1847 51.0381 44.8905 51.8721 44.5497C53.0484 44.069 54.0493 43.4804 54.7669 42.7911C55.4861 42.1002 55.9696 41.2563 55.9633 40.2947C55.9569 39.3331 55.4623 38.4956 54.734 37.8143C54.0074 37.1345 52.9989 36.5592 51.8163 36.094C50.2389 35.4735 48.2857 35.0232 46.1201 34.7983C46.8927 35.3616 47.5717 35.9681 48.1439 36.6105C49.3121 36.8365 50.3659 37.1353 51.2673 37.4899C52.3447 37.9137 53.1673 38.4026 53.7092 38.9096C54.2494 39.415 54.4605 39.8869 54.4633 40.3046C54.466 40.7222 54.2612 41.1969 53.7277 41.7094C53.1925 42.2235 52.3764 42.7232 51.3047 43.1612C50.8758 43.3364 50.412 43.4994 49.9172 43.6482Z" fill="#FF5C00"/>
<path fill-rule="evenodd" clip-rule="evenodd" d="M40.9284 26.7828C40.6728 27.2209 40.3912 27.6419 40.0859 28.0439C40.8663 28.4343 41.7478 28.6514 42.6801 28.6452C45.8477 28.6243 48.3954 26.0337 48.3744 22.8628C48.3535 19.6919 45.7719 17.1351 42.6043 17.156C42.4626 17.1569 42.3222 17.163 42.1831 17.1741C42.3155 17.6577 42.4195 18.1531 42.4935 18.6585C42.5336 18.6571 42.5738 18.6562 42.6142 18.656C44.9499 18.6406 46.859 20.5267 46.8745 22.8727C46.89 25.2187 45.0059 27.1299 42.6702 27.1453C42.0504 27.1494 41.4607 27.0196 40.9284 26.7828Z" fill="#FF5C00"/>
<path fill-rule="evenodd" clip-rule="evenodd" d="M18.1141 17.3328C17.9749 17.3236 17.8344 17.3194 17.6927 17.3203C14.5251 17.3412 11.9774 19.9319 11.9983 23.1028C12.0193 26.2737 14.6009 28.8305 17.7685 28.8096C18.7008 28.8034 19.5793 28.5747 20.3545 28.174C20.0439 27.7761 19.7569 27.3588 19.4954 26.9242C18.9663 27.168 18.3784 27.3055 17.7586 27.3096C15.4229 27.325 13.5138 25.4389 13.4983 23.0929C13.4828 20.7469 15.3669 18.8357 17.7026 18.8203C17.743 18.82 17.7832 18.8203 17.8234 18.8212C17.8906 18.3149 17.9881 17.8182 18.1141 17.3328Z" fill="#FF5C00"/>
</svg>
