<svg width="27" height="27" viewBox="0 0 27 27" fill="none" xmlns="http://www.w3.org/2000/svg">
<path d="M8.45475 16.4647C8.45475 15.8569 8.45475 15.553 8.52341 15.267C8.58428 15.0135 8.68468 14.7711 8.82093 14.5488C8.9746 14.298 9.18949 14.0831 9.61926 13.6533L21.5006 1.77197C22.5299 0.742677 24.1987 0.742678 25.228 1.77197C26.2573 2.80126 26.2573 4.47007 25.228 5.49936L13.3467 17.3807C12.9169 17.8105 12.702 18.0254 12.4512 18.179C12.2289 18.3153 11.9865 18.4157 11.733 18.4766C11.447 18.5452 11.1431 18.5452 10.5353 18.5452H8.45475V16.4647Z" fill="white"/>
<path d="M12.1822 3.63566H6.96382C4.87629 3.63566 3.83252 3.63566 3.03519 4.04193C2.33384 4.39928 1.76362 4.9695 1.40626 5.67085C1 6.46819 1 7.51195 1 9.59949V20.0362C1 22.1237 1 23.1675 1.40626 23.9648C1.76362 24.6662 2.33384 25.2364 3.03519 25.5937C3.83252 26 4.87629 26 6.96382 26H17.4005C19.488 26 20.5318 26 21.3291 25.5937C22.0305 25.2364 22.6007 24.6662 22.9581 23.9648C23.3643 23.1675 23.3643 22.1237 23.3643 20.0362V14.8178M8.45475 18.5452H10.5353C11.1431 18.5452 11.447 18.5452 11.733 18.4766C11.9865 18.4157 12.2289 18.3153 12.4512 18.179C12.702 18.0254 12.9169 17.8105 13.3467 17.3807L25.228 5.49936C26.2573 4.47007 26.2573 2.80126 25.228 1.77197C24.1987 0.742678 22.5299 0.742677 21.5006 1.77197L9.61926 13.6533C9.18949 14.0831 8.9746 14.298 8.82093 14.5488C8.68468 14.7711 8.58428 15.0135 8.5234 15.267C8.45475 15.553 8.45475 15.8569 8.45475 16.4647V18.5452Z" stroke="white" stroke-width="2" stroke-linecap="round" stroke-linejoin="round"/>
</svg>
