<svg width="20" height="20" viewBox="0 0 20 20" fill="none" xmlns="http://www.w3.org/2000/svg">
<path d="M15 1.66675H5C3.61667 1.66675 2.5 2.77508 2.5 4.14175V13.2334C2.5 14.6001 3.61667 15.7084 5 15.7084H5.63333C6.3 15.7084 6.93333 15.9667 7.4 16.4334L8.825 17.8417C9.475 18.4834 10.5333 18.4834 11.1833 17.8417L12.6083 16.4334C13.075 15.9667 13.7167 15.7084 14.375 15.7084H15C16.3833 15.7084 17.5 14.6001 17.5 13.2334V4.14175C17.5 2.77508 16.3833 1.66675 15 1.66675ZM10 4.79175C11.075 4.79175 11.9417 5.65841 11.9417 6.73342C11.9417 7.80841 11.075 8.67508 10 8.67508C8.925 8.67508 8.05833 7.80008 8.05833 6.73342C8.05833 5.65841 8.925 4.79175 10 4.79175ZM12.2333 12.5501H7.76667C7.09167 12.5501 6.7 11.8001 7.075 11.2417C7.64167 10.4001 8.74167 9.83342 10 9.83342C11.2583 9.83342 12.3583 10.4001 12.925 11.2417C13.3 11.8001 12.9 12.5501 12.2333 12.5501Z" fill="#292D32"/>
</svg>
