<svg width="24" height="25" viewBox="0 0 24 25" fill="none" xmlns="http://www.w3.org/2000/svg">
<path d="M2.5 12.2373H5.88197C6.56717 12.2373 7.19357 12.6244 7.5 13.2373C7.80643 13.8502 8.43283 14.2373 9.11803 14.2373H14.882C15.5672 14.2373 16.1936 13.8502 16.5 13.2373C16.8064 12.6244 17.4328 12.2373 18.118 12.2373H21.5M8.96656 4.2373H15.0334C16.1103 4.2373 16.6487 4.2373 17.1241 4.40127C17.5445 4.54627 17.9274 4.7829 18.2451 5.09405C18.6043 5.4459 18.8451 5.9275 19.3267 6.89068L21.4932 11.2238C21.6822 11.6018 21.7767 11.7908 21.8434 11.9889C21.9026 12.1648 21.9453 12.3458 21.971 12.5296C22 12.7365 22 12.9478 22 13.3704V15.4373C22 17.1175 22 17.9575 21.673 18.5993C21.3854 19.1638 20.9265 19.6227 20.362 19.9103C19.7202 20.2373 18.8802 20.2373 17.2 20.2373H6.8C5.11984 20.2373 4.27976 20.2373 3.63803 19.9103C3.07354 19.6227 2.6146 19.1638 2.32698 18.5993C2 17.9575 2 17.1175 2 15.4373V13.3704C2 12.9478 2 12.7365 2.02897 12.5296C2.05471 12.3458 2.09744 12.1648 2.15662 11.9889C2.22326 11.7908 2.31776 11.6018 2.50675 11.2238L4.67331 6.89068C5.1549 5.9275 5.3957 5.4459 5.75495 5.09405C6.07263 4.7829 6.45551 4.54627 6.87589 4.40127C7.35125 4.2373 7.88969 4.2373 8.96656 4.2373Z" stroke="black" stroke-width="2" stroke-linecap="round" stroke-linejoin="round"/>
</svg>
