<svg width="30" height="31" viewBox="0 0 30 31" fill="none" xmlns="http://www.w3.org/2000/svg">
<path d="M8.75 15.2373C3.75 15.2373 3.75 17.4748 3.75 20.2373V21.4873C3.75 24.9373 3.75 27.7373 10 27.7373H20C25 27.7373 26.25 24.9373 26.25 21.4873V20.2373C26.25 17.4748 26.25 15.2373 21.25 15.2373C20 15.2373 19.65 15.4998 19 15.9873L17.725 17.3373C16.25 18.9123 13.75 18.9123 12.2625 17.3373L11 15.9873C10.35 15.4998 10 15.2373 8.75 15.2373Z" stroke="black" stroke-width="1.5" stroke-miterlimit="10" stroke-linecap="round" stroke-linejoin="round"/>
<path d="M23.75 15.2373V7.7373C23.75 4.9748 23.75 2.7373 18.75 2.7373H11.25C6.25 2.7373 6.25 4.9748 6.25 7.7373V15.2373" stroke="black" stroke-width="1.5" stroke-miterlimit="10" stroke-linecap="round" stroke-linejoin="round"/>
</svg>
