<svg width="24" height="25" viewBox="0 0 24 25" fill="none" xmlns="http://www.w3.org/2000/svg">
<path d="M21 6.21997C17.67 5.88997 14.32 5.71997 10.98 5.71997C9 5.71997 7.02 5.81997 5.04 6.01997L3 6.21997" stroke="#FF0505" stroke-width="1.5" stroke-linecap="round" stroke-linejoin="round"/>
<path d="M8.5 5.20999L8.72 3.89999C8.88 2.94999 9 2.23999 10.69 2.23999H13.31C15 2.23999 15.13 2.98999 15.28 3.90999L15.5 5.20999" stroke="#FF0505" stroke-width="1.5" stroke-linecap="round" stroke-linejoin="round"/>
<path d="M18.85 9.38L18.2 19.45C18.09 21.02 18 22.24 15.21 22.24H8.79002C6.00002 22.24 5.91002 21.02 5.80002 19.45L5.15002 9.38" stroke="#FF0505" stroke-width="1.5" stroke-linecap="round" stroke-linejoin="round"/>
<path d="M10.33 16.74H13.66" stroke="#FF0505" stroke-width="1.5" stroke-linecap="round" stroke-linejoin="round"/>
<path d="M9.5 12.74H14.5" stroke="#FF0505" stroke-width="1.5" stroke-linecap="round" stroke-linejoin="round"/>
</svg>
