<svg width="28" height="28" viewBox="0 0 28 28" fill="none" xmlns="http://www.w3.org/2000/svg">
<path d="M12.417 4.51516H7.67606C5.7795 4.51516 4.83121 4.51516 4.10682 4.88425C3.46963 5.20892 2.95157 5.72697 2.62691 6.36416C2.25781 7.08856 2.25781 8.03684 2.25781 9.9334V19.4153C2.25781 21.3119 2.25781 22.2602 2.62691 22.9846C2.95157 23.6218 3.46963 24.1398 4.10682 24.4645C4.83121 24.8336 5.7795 24.8336 7.67606 24.8336H17.158C19.0546 24.8336 20.0028 24.8336 20.7272 24.4645C21.3644 24.1398 21.8825 23.6218 22.2071 22.9846C22.5762 22.2602 22.5762 21.3119 22.5762 19.4153V14.6744M9.03059 18.0608H10.9208C11.473 18.0608 11.7491 18.0608 12.0089 17.9984C12.2393 17.9431 12.4595 17.8519 12.6615 17.7281C12.8893 17.5885 13.0845 17.3932 13.475 17.0028L24.2694 6.20836C25.2046 5.27323 25.2046 3.75708 24.2694 2.82195C23.3343 1.88682 21.8182 1.88682 20.883 2.82195L10.0886 13.6164C9.69812 14.0068 9.50289 14.2021 9.36327 14.4299C9.23949 14.6319 9.14827 14.8521 9.09297 15.0825C9.03059 15.3423 9.03059 15.6184 9.03059 16.1706V18.0608Z" stroke="black" stroke-width="2" stroke-linecap="round" stroke-linejoin="round"/>
</svg>
