<svg width="25" height="26" viewBox="0 0 25 26" fill="none" xmlns="http://www.w3.org/2000/svg">
<path d="M22.916 6.39677V8.9176C22.916 10.5634 21.8743 11.6051 20.2285 11.6051H16.666V4.32385C16.666 3.1676 17.6139 2.2301 18.7702 2.2301C19.9056 2.24052 20.9473 2.69885 21.6973 3.44885C22.4473 4.20927 22.916 5.25094 22.916 6.39677Z" stroke="black" stroke-width="1.5" stroke-miterlimit="10" stroke-linecap="round" stroke-linejoin="round"/>
<path d="M2.08398 7.43844V22.0218C2.08398 22.8864 3.06315 23.3759 3.75065 22.8551L5.5319 21.5218C5.94857 21.2093 6.5319 21.2509 6.9069 21.6259L8.63607 23.3655C9.04232 23.7718 9.70898 23.7718 10.1152 23.3655L11.8652 21.6155C12.2298 21.2509 12.8132 21.2093 13.2194 21.5218L15.0007 22.8551C15.6882 23.3655 16.6673 22.8759 16.6673 22.0218V4.31344C16.6673 3.1676 17.6048 2.2301 18.7507 2.2301H7.29232H6.25065C3.12565 2.2301 2.08398 4.09469 2.08398 6.39677V7.43844Z" stroke="black" stroke-width="1.5" stroke-miterlimit="10" stroke-linecap="round" stroke-linejoin="round"/>
<path d="M9.375 13.6987H12.5" stroke="black" stroke-width="1.5" stroke-linecap="round" stroke-linejoin="round"/>
<path d="M9.375 9.53223H12.5" stroke="black" stroke-width="1.5" stroke-linecap="round" stroke-linejoin="round"/>
<path d="M6.24609 13.6884H6.25545" stroke="black" stroke-width="2" stroke-linecap="round" stroke-linejoin="round"/>
<path d="M6.24609 9.52173H6.25545" stroke="black" stroke-width="2" stroke-linecap="round" stroke-linejoin="round"/>
</svg>
