<svg width="30" height="31" viewBox="0 0 30 31" fill="none" xmlns="http://www.w3.org/2000/svg">
<ellipse cx="15" cy="20.8623" rx="7.5" ry="3.125" stroke="black" stroke-width="1.5" stroke-linejoin="round"/>
<circle cx="15" cy="10.2373" r="3.75" stroke="black" stroke-width="1.5" stroke-linejoin="round"/>
<path fill-rule="evenodd" clip-rule="evenodd" d="M7.69455 17.0211C6.30797 17.111 5.04485 17.376 4.05204 17.7731C3.43423 18.0203 2.88394 18.3333 2.47583 18.7192C2.06613 19.1067 1.75 19.6194 1.75 20.2373C1.75 20.8551 2.06613 21.3678 2.47583 21.7553C2.88394 22.1412 3.43423 22.4543 4.05204 22.7014C4.60283 22.9217 5.23682 23.1014 5.92893 23.233C5.47731 22.6872 5.17681 22.0938 5.05767 21.4699C4.90016 21.4191 4.75043 21.3652 4.60913 21.3087C4.09591 21.1034 3.73091 20.8777 3.50649 20.6655C3.28365 20.4547 3.25 20.3098 3.25 20.2373C3.25 20.1648 3.28365 20.0198 3.50649 19.8091C3.73091 19.5968 4.09591 19.3711 4.60913 19.1659C4.92385 19.04 5.2804 18.9273 5.67149 18.8316C6.13728 18.155 6.82899 17.5418 7.69455 17.0211Z" fill="black"/>
<path fill-rule="evenodd" clip-rule="evenodd" d="M24.9425 21.4699C24.8234 22.0938 24.5229 22.6872 24.0713 23.233C24.7634 23.1014 25.3974 22.9217 25.9482 22.7014C26.566 22.4543 27.1163 22.1412 27.5244 21.7553C27.9341 21.3678 28.2502 20.8551 28.2502 20.2373C28.2502 19.6194 27.9341 19.1067 27.5244 18.7192C27.1163 18.3333 26.566 18.0203 25.9482 17.7731C24.9554 17.376 23.6923 17.111 22.3057 17.0211C23.1712 17.5418 23.8629 18.155 24.3287 18.8316C24.7198 18.9273 25.0764 19.04 25.3911 19.1659C25.9043 19.3711 26.2693 19.5968 26.4937 19.8091C26.7166 20.0198 26.7502 20.1648 26.7502 20.2373C26.7502 20.3098 26.7166 20.4547 26.4937 20.6655C26.2693 20.8777 25.9043 21.1034 25.3911 21.3087C25.2498 21.3652 25.1001 21.4191 24.9425 21.4699Z" fill="black"/>
<path fill-rule="evenodd" clip-rule="evenodd" d="M20.559 13.0958C20.3259 13.5484 20.0391 13.9688 19.707 14.3486C20.166 14.5966 20.6913 14.7373 21.2495 14.7373C23.0445 14.7373 24.4995 13.2822 24.4995 11.4873C24.4995 9.69238 23.0445 8.2373 21.2495 8.2373C21.141 8.2373 21.0338 8.24262 20.928 8.25301C21.0859 8.72521 21.1891 9.22253 21.2298 9.73742C21.2364 9.73734 21.243 9.7373 21.2495 9.7373C22.216 9.7373 22.9995 10.5208 22.9995 11.4873C22.9995 12.4538 22.216 13.2373 21.2495 13.2373C21.0043 13.2373 20.7709 13.1869 20.559 13.0958Z" fill="black"/>
<path fill-rule="evenodd" clip-rule="evenodd" d="M9.07157 8.25301C8.96579 8.24262 8.85851 8.2373 8.75 8.2373C6.95507 8.2373 5.5 9.69238 5.5 11.4873C5.5 13.2822 6.95507 14.7373 8.75 14.7373C9.30822 14.7373 9.83357 14.5966 10.2925 14.3486C9.96047 13.9688 9.67367 13.5484 9.44051 13.0958C9.22866 13.1869 8.99522 13.2373 8.75 13.2373C7.7835 13.2373 7 12.4538 7 11.4873C7 10.5208 7.7835 9.7373 8.75 9.7373C8.75658 9.7373 8.76314 9.73734 8.7697 9.73742C8.81045 9.22253 8.91359 8.72521 9.07157 8.25301Z" fill="black"/>
</svg>
