<svg width="30" height="31" viewBox="0 0 30 31" fill="none" xmlns="http://www.w3.org/2000/svg">
<path d="M15.0004 28.5843C21.5004 28.5843 26.7754 23.2968 26.7754 16.8093C26.7754 14.4718 26.0879 12.2093 24.7879 10.2593C24.5004 9.83428 23.9129 9.70928 23.4879 9.99678C23.0629 10.2843 22.9379 10.8718 23.2254 11.2968C24.3129 12.9218 24.8879 14.8343 24.8879 16.7968C24.8879 22.2593 20.4504 26.6968 14.9879 26.6968C9.52539 26.6968 5.08789 22.2593 5.08789 16.7968C5.08789 11.3343 9.53789 6.89678 15.0004 6.89678C16.1504 6.89678 17.2754 7.05928 18.3379 7.38428C18.8379 7.53428 19.3629 7.25928 19.5129 6.75928C19.6629 6.25928 19.3879 5.73428 18.8879 5.58428C17.6379 5.20928 16.3379 5.00928 15.0004 5.00928C8.50039 5.00928 3.22539 10.2968 3.22539 16.7843C3.22539 23.2718 8.50039 28.5843 15.0004 28.5843Z" fill="black"/>
<path d="M20.1621 7.73426C20.3746 7.73426 20.5996 7.65926 20.7746 7.50926C21.1746 7.15926 21.2121 6.57176 20.8746 6.18426L17.2621 2.03426C16.9246 1.64676 16.3246 1.59676 15.9371 1.94676C15.5496 2.28426 15.5121 2.88426 15.8496 3.27176L19.4621 7.40926C19.6496 7.62176 19.9121 7.73426 20.1621 7.73426Z" fill="black"/>
<path d="M15.9505 10.8093C16.138 10.8093 16.338 10.7468 16.5005 10.6343L20.7255 7.54676C21.138 7.24676 21.2255 6.65926 20.9255 6.24676C20.6255 5.82176 20.038 5.73426 19.613 6.03426L15.4005 9.10926C14.988 9.40926 14.888 9.99676 15.2005 10.4218C15.3755 10.6843 15.663 10.8093 15.9505 10.8093Z" fill="black"/>
</svg>
